<svg width="360pt" height="351pt" viewBox="0.00 0.00 360.00 351.11" xmlns="http://www.w3.org/2000/svg" xmlns:xlink="http://www.w3.org/1999/xlink">
<g id="graph0" class="graph" transform="scale(.6252 .6252) rotate(0) translate(4 557.5901)">
<title>DHT</title>
<polygon fill="#ffffff" stroke="transparent" points="-4,4 -4,-557.5901 571.8162,-557.5901 571.8162,4 -4,4"></polygon>
<!-- n0 -->
<g id="node1" class="node">
<title>n0</title>
<ellipse fill="none" stroke="#000000" cx="510.9551" cy="-155.6437" rx="27" ry="18"></ellipse>
<text text-anchor="middle" x="510.9551" y="-151.4437" font-family="Times,serif" font-size="14.00" fill="#000000">n0</text>
</g>
<!-- n1 -->
<g id="node2" class="node">
<title>n1</title>
<ellipse fill="none" stroke="#000000" cx="540.8162" cy="-276.795" rx="27" ry="18"></ellipse>
<text text-anchor="middle" x="540.8162" y="-272.595" font-family="Times,serif" font-size="14.00" fill="#000000">n1</text>
</g>
<!-- n0&#45;&#45;n1 -->
<g id="edge67" class="edge">
<title>n0--n1</title>
<path fill="none" stroke="#000000" d="M515.3612,-173.52C521.007,-196.4256 530.7376,-235.9044 536.3921,-258.8454"></path>
</g>
<!-- n2 -->
<g id="node3" class="node">
<title>n2</title>
<ellipse fill="none" stroke="#000000" cx="311.5439" cy="-18" rx="27" ry="18"></ellipse>
<text text-anchor="middle" x="311.5439" y="-13.8" font-family="Times,serif" font-size="14.00" fill="#000000">n2</text>
</g>
<!-- n0&#45;&#45;n2 -->
<g id="edge68" class="edge">
<title>n0--n2</title>
<path fill="none" stroke="#000000" d="M492.195,-142.6945C454.1888,-116.4607 368.4852,-57.3038 330.3994,-31.015"></path>
</g>
<!-- n3 -->
<g id="node4" class="node">
<title>n3</title>
<ellipse fill="none" stroke="#000000" cx="187.6764" cy="-33.0402" rx="27" ry="18"></ellipse>
<text text-anchor="middle" x="187.6764" y="-28.8402" font-family="Times,serif" font-size="14.00" fill="#000000">n3</text>
</g>
<!-- n0&#45;&#45;n3 -->
<g id="edge69" class="edge">
<title>n0--n3</title>
<path fill="none" stroke="#000000" d="M487.4453,-146.7276C427.8736,-124.135 271.4827,-64.8238 211.535,-42.0886"></path>
</g>
<!-- n4 -->
<g id="node5" class="node">
<title>n4</title>
<ellipse fill="none" stroke="#000000" cx="84.9868" cy="-103.9217" rx="27" ry="18"></ellipse>
<text text-anchor="middle" x="84.9868" y="-99.7217" font-family="Times,serif" font-size="14.00" fill="#000000">n4</text>
</g>
<!-- n0&#45;&#45;n4 -->
<g id="edge70" class="edge">
<title>n0--n4</title>
<path fill="none" stroke="#000000" d="M484.3089,-152.4082C407.8108,-143.1197 188.1085,-116.443 111.623,-107.156"></path>
</g>
<!-- n5 -->
<g id="node6" class="node">
<title>n5</title>
<ellipse fill="none" stroke="#000000" cx="27" cy="-214.4064" rx="27" ry="18"></ellipse>
<text text-anchor="middle" x="27" y="-210.2064" font-family="Times,serif" font-size="14.00" fill="#000000">n5</text>
</g>
<!-- n0&#45;&#45;n5 -->
<g id="edge71" class="edge">
<title>n0--n5</title>
<path fill="none" stroke="#000000" d="M484.2462,-158.8867C399.6336,-169.1605 138.1238,-200.9136 53.6263,-211.1734"></path>
</g>
<!-- n6 -->
<g id="node7" class="node">
<title>n6</title>
<ellipse fill="none" stroke="#000000" cx="27" cy="-339.1836" rx="27" ry="18"></ellipse>
<text text-anchor="middle" x="27" y="-334.9836" font-family="Times,serif" font-size="14.00" fill="#000000">n6</text>
</g>
<!-- n0&#45;&#45;n6 -->
<g id="edge72" class="edge">
<title>n0--n6</title>
<path fill="none" stroke="#000000" d="M487.2853,-164.6204C405.1139,-195.7839 132.7253,-299.0873 50.6242,-330.2241"></path>
</g>
<!-- n7 -->
<g id="node8" class="node">
<title>n7</title>
<ellipse fill="none" stroke="#000000" cx="84.9868" cy="-449.6683" rx="27" ry="18"></ellipse>
<text text-anchor="middle" x="84.9868" y="-445.4683" font-family="Times,serif" font-size="14.00" fill="#000000">n7</text>
</g>
<!-- n0&#45;&#45;n7 -->
<g id="edge73" class="edge">
<title>n0--n7</title>
<path fill="none" stroke="#000000" d="M492.1022,-168.6569C421.7403,-217.2242 174.9093,-387.5993 104.1054,-436.4717"></path>
</g>
<!-- n8 -->
<g id="node9" class="node">
<title>n8</title>
<ellipse fill="none" stroke="#000000" cx="187.6764" cy="-520.5498" rx="27" ry="18"></ellipse>
<text text-anchor="middle" x="187.6764" y="-516.3498" font-family="Times,serif" font-size="14.00" fill="#000000">n8</text>
</g>
<!-- n0&#45;&#45;n8 -->
<g id="edge74" class="edge">
<title>n0--n8</title>
<path fill="none" stroke="#000000" d="M497.0642,-171.3232C444.0091,-231.2101 254.4819,-445.1421 201.5156,-504.9287"></path>
</g>
<!-- n9 -->
<g id="node10" class="node">
<title>n9</title>
<ellipse fill="none" stroke="#000000" cx="311.5439" cy="-535.5901" rx="27" ry="18"></ellipse>
<text text-anchor="middle" x="311.5439" y="-531.3901" font-family="Times,serif" font-size="14.00" fill="#000000">n9</text>
</g>
<!-- n0&#45;&#45;n9 -->
<g id="edge75" class="edge">
<title>n0--n9</title>
<path fill="none" stroke="#000000" d="M501.8687,-172.9565C468.6486,-236.2519 353.9908,-454.7142 320.6837,-518.1756"></path>
</g>
<!-- n10 -->
<g id="node11" class="node">
<title>n10</title>
<ellipse fill="none" stroke="#000000" cx="428.2125" cy="-491.3435" rx="27" ry="18"></ellipse>
<text text-anchor="middle" x="428.2125" y="-487.1435" font-family="Times,serif" font-size="14.00" fill="#000000">n10</text>
</g>
<!-- n0&#45;&#45;n10 -->
<g id="edge76" class="edge">
<title>n0--n10</title>
<path fill="none" stroke="#000000" d="M506.5065,-173.6923C492.1397,-231.9808 447.0812,-414.7902 432.6831,-473.2055"></path>
</g>
<!-- n11 -->
<g id="node12" class="node">
<title>n11</title>
<ellipse fill="none" stroke="#000000" cx="510.9551" cy="-397.9464" rx="27" ry="18"></ellipse>
<text text-anchor="middle" x="510.9551" y="-393.7464" font-family="Times,serif" font-size="14.00" fill="#000000">n11</text>
</g>
<!-- n0&#45;&#45;n11 -->
<g id="edge77" class="edge">
<title>n0--n11</title>
<path fill="none" stroke="#000000" d="M510.9551,-173.8557C510.9551,-218.8699 510.9551,-334.9651 510.9551,-379.8535"></path>
</g>
<!-- n12 -->
<g id="node13" class="node">
<title>n12</title>
<ellipse fill="none" stroke="#000000" cx="428.2125" cy="-62.2466" rx="27" ry="18"></ellipse>
<text text-anchor="middle" x="428.2125" y="-58.0466" font-family="Times,serif" font-size="14.00" fill="#000000">n12</text>
</g>
<!-- n0&#45;&#45;n12 -->
<g id="edge78" class="edge">
<title>n0--n12</title>
<path fill="none" stroke="#000000" d="M496.919,-139.8001C481.6114,-122.5215 457.2668,-95.042 442.0414,-77.8562"></path>
</g>
<!-- n1&#45;&#45;n2 -->
<g id="edge56" class="edge">
<title>n1--n2</title>
<path fill="none" stroke="#000000" d="M526.8194,-260.9958C485.7911,-214.6844 366.1508,-79.6385 325.3575,-33.5924"></path>
</g>
<!-- n1&#45;&#45;n3 -->
<g id="edge57" class="edge">
<title>n1--n3</title>
<path fill="none" stroke="#000000" d="M521.8299,-263.6897C460.5133,-221.3659 268.2068,-88.6263 206.7567,-46.2103"></path>
</g>
<!-- n1&#45;&#45;n4 -->
<g id="edge58" class="edge">
<title>n1--n4</title>
<path fill="none" stroke="#000000" d="M517.2687,-267.8646C438.8768,-238.1345 187.2542,-142.7066 108.6671,-112.9025"></path>
</g>
<!-- n1&#45;&#45;n5 -->
<g id="edge59" class="edge">
<title>n1--n5</title>
<path fill="none" stroke="#000000" d="M513.9147,-273.5286C425.1251,-262.7476 142.0351,-228.3742 53.6353,-217.6405"></path>
</g>
<!-- n1&#45;&#45;n6 -->
<g id="edge60" class="edge">
<title>n1--n6</title>
<path fill="none" stroke="#000000" d="M513.9147,-280.0615C425.1251,-290.8425 142.0351,-325.2158 53.6353,-335.9495"></path>
</g>
<!-- n1&#45;&#45;n7 -->
<g id="edge61" class="edge">
<title>n1--n7</title>
<path fill="none" stroke="#000000" d="M517.2687,-285.7254C438.8768,-315.4556 187.2542,-410.8834 108.6671,-440.6876"></path>
</g>
<!-- n1&#45;&#45;n8 -->
<g id="edge62" class="edge">
<title>n1--n8</title>
<path fill="none" stroke="#000000" d="M521.8299,-289.9003C460.5133,-332.2242 268.2068,-464.9638 206.7567,-507.3797"></path>
</g>
<!-- n1&#45;&#45;n9 -->
<g id="edge63" class="edge">
<title>n1--n9</title>
<path fill="none" stroke="#000000" d="M526.8194,-292.5942C485.7911,-338.9056 366.1508,-473.9515 325.3575,-519.9976"></path>
</g>
<!-- n1&#45;&#45;n10 -->
<g id="edge64" class="edge">
<title>n1--n10</title>
<path fill="none" stroke="#000000" d="M531.7918,-293.9898C510.7077,-334.1621 458.4065,-433.8138 437.28,-474.0669"></path>
</g>
<!-- n1&#45;&#45;n11 -->
<g id="edge65" class="edge">
<title>n1--n11</title>
<path fill="none" stroke="#000000" d="M536.4101,-294.6713C530.7644,-317.577 521.0337,-357.0558 515.3793,-379.9968"></path>
</g>
<!-- n1&#45;&#45;n12 -->
<g id="edge66" class="edge">
<title>n1--n12</title>
<path fill="none" stroke="#000000" d="M531.7918,-259.6003C510.7077,-219.4279 458.4065,-119.7763 437.28,-79.5232"></path>
</g>
<!-- n2&#45;&#45;n3 -->
<g id="edge46" class="edge">
<title>n2--n3</title>
<path fill="none" stroke="#000000" d="M284.9712,-21.2265C264.2139,-23.7469 235.4872,-27.235 214.6326,-29.7672"></path>
</g>
<!-- n2&#45;&#45;n4 -->
<g id="edge47" class="edge">
<title>n2--n4</title>
<path fill="none" stroke="#000000" d="M287.7265,-27.0327C244.1008,-43.5778 151.8726,-78.5553 108.4851,-95.01"></path>
</g>
<!-- n2&#45;&#45;n5 -->
<g id="edge48" class="edge">
<title>n2--n5</title>
<path fill="none" stroke="#000000" d="M292.4323,-31.1918C240.5962,-66.9716 97.767,-165.5595 46.0284,-201.2721"></path>
</g>
<!-- n2&#45;&#45;n6 -->
<g id="edge49" class="edge">
<title>n2--n6</title>
<path fill="none" stroke="#000000" d="M297.4333,-33.9275C248.8772,-88.7361 89.0316,-269.1645 40.8602,-323.5387"></path>
</g>
<!-- n2&#45;&#45;n7 -->
<g id="edge50" class="edge">
<title>n2--n7</title>
<path fill="none" stroke="#000000" d="M302.5227,-35.1883C266.1468,-104.4969 130.4566,-363.033 94.0337,-432.4309"></path>
</g>
<!-- n2&#45;&#45;n8 -->
<g id="edge51" class="edge">
<title>n2--n8</title>
<path fill="none" stroke="#000000" d="M307.1353,-35.886C287.8925,-113.9571 211.3626,-424.4513 192.0966,-502.6164"></path>
</g>
<!-- n2&#45;&#45;n9 -->
<g id="edge52" class="edge">
<title>n2--n9</title>
<path fill="none" stroke="#000000" d="M311.5439,-36.1178C311.5439,-116.0974 311.5439,-437.1283 311.5439,-517.351"></path>
</g>
<!-- n2&#45;&#45;n10 -->
<g id="edge53" class="edge">
<title>n2--n10</title>
<path fill="none" stroke="#000000" d="M315.9749,-35.9776C334.4555,-110.9563 405.2881,-398.3354 423.777,-473.3479"></path>
</g>
<!-- n2&#45;&#45;n11 -->
<g id="edge54" class="edge">
<title>n2--n11</title>
<path fill="none" stroke="#000000" d="M320.6303,-35.3128C353.8503,-98.6083 468.5082,-317.0706 501.8153,-380.5319"></path>
</g>
<!-- n2&#45;&#45;n12 -->
<g id="edge55" class="edge">
<title>n2--n12</title>
<path fill="none" stroke="#000000" d="M335.1535,-26.954C355.395,-34.6305 384.4067,-45.6332 404.638,-53.306"></path>
</g>
<!-- n3&#45;&#45;n4 -->
<g id="edge37" class="edge">
<title>n3--n4</title>
<path fill="none" stroke="#000000" d="M168.8416,-46.041C150.4289,-58.7504 122.5406,-78.0002 104.0501,-90.7634"></path>
</g>
<!-- n3&#45;&#45;n5 -->
<g id="edge38" class="edge">
<title>n3--n5</title>
<path fill="none" stroke="#000000" d="M173.6985,-48.818C143.2346,-83.2047 71.161,-164.559 40.8312,-198.7943"></path>
</g>
<!-- n3&#45;&#45;n6 -->
<g id="edge39" class="edge">
<title>n3--n6</title>
<path fill="none" stroke="#000000" d="M178.5774,-50.377C150.2966,-104.2616 64.1434,-268.4127 35.9992,-322.037"></path>
</g>
<!-- n3&#45;&#45;n7 -->
<g id="edge40" class="edge">
<title>n3--n7</title>
<path fill="none" stroke="#000000" d="M183.264,-50.9422C166.411,-119.3175 106.2076,-363.5722 89.3828,-431.833"></path>
</g>
<!-- n3&#45;&#45;n8 -->
<g id="edge41" class="edge">
<title>n3--n8</title>
<path fill="none" stroke="#000000" d="M187.6764,-51.2614C187.6764,-128.1829 187.6764,-425.8962 187.6764,-502.4962"></path>
</g>
<!-- n3&#45;&#45;n9 -->
<g id="edge42" class="edge">
<title>n3--n9</title>
<path fill="none" stroke="#000000" d="M192.085,-50.9262C211.3278,-128.9974 287.8577,-439.4915 307.1237,-517.6566"></path>
</g>
<!-- n3&#45;&#45;n10 -->
<g id="edge43" class="edge">
<title>n3--n10</title>
<path fill="none" stroke="#000000" d="M196.6667,-50.1698C234.5343,-122.3204 380.851,-401.1037 419.0485,-473.8828"></path>
</g>
<!-- n3&#45;&#45;n11 -->
<g id="edge44" class="edge">
<title>n3--n11</title>
<path fill="none" stroke="#000000" d="M201.5673,-48.7198C254.6225,-108.6067 444.1497,-322.5386 497.116,-382.3253"></path>
</g>
<!-- n3&#45;&#45;n12 -->
<g id="edge45" class="edge">
<title>n3--n12</title>
<path fill="none" stroke="#000000" d="M214.3371,-36.2774C260.573,-41.8915 355.1135,-53.3708 401.4325,-58.9949"></path>
</g>
<!-- n4&#45;&#45;n5 -->
<g id="edge29" class="edge">
<title>n4--n5</title>
<path fill="none" stroke="#000000" d="M75.9264,-121.185C65.0326,-141.9413 46.8622,-176.5622 35.9968,-197.2644"></path>
</g>
<!-- n4&#45;&#45;n6 -->
<g id="edge30" class="edge">
<title>n4--n6</title>
<path fill="none" stroke="#000000" d="M80.533,-121.9917C69.7128,-165.8911 42.1433,-277.7448 31.3896,-321.3741"></path>
</g>
<!-- n4&#45;&#45;n7 -->
<g id="edge31" class="edge">
<title>n4--n7</title>
<path fill="none" stroke="#000000" d="M84.9868,-122.0238C84.9868,-181.6313 84.9868,-371.376 84.9868,-431.3283"></path>
</g>
<!-- n4&#45;&#45;n8 -->
<g id="edge32" class="edge">
<title>n4--n8</title>
<path fill="none" stroke="#000000" d="M89.3993,-121.8237C106.2523,-190.199 166.4557,-434.4537 183.2804,-502.7145"></path>
</g>
<!-- n4&#45;&#45;n9 -->
<g id="edge33" class="edge">
<title>n4--n9</title>
<path fill="none" stroke="#000000" d="M94.008,-121.11C130.3839,-190.4187 266.0741,-448.9547 302.497,-518.3527"></path>
</g>
<!-- n4&#45;&#45;n10 -->
<g id="edge34" class="edge">
<title>n4--n10</title>
<path fill="none" stroke="#000000" d="M98.8668,-119.589C154.1745,-182.0184 358.5431,-412.7029 414.1599,-475.4813"></path>
</g>
<!-- n4&#45;&#45;n11 -->
<g id="edge35" class="edge">
<title>n4--n11</title>
<path fill="none" stroke="#000000" d="M103.8398,-116.935C174.2016,-165.5023 421.0326,-335.8774 491.8366,-384.7498"></path>
</g>
<!-- n4&#45;&#45;n12 -->
<g id="edge36" class="edge">
<title>n4--n12</title>
<path fill="none" stroke="#000000" d="M111.6336,-100.6862C175.5805,-92.9217 337.1763,-73.3004 401.3461,-65.5088"></path>
</g>
<!-- n5&#45;&#45;n6 -->
<g id="edge22" class="edge">
<title>n5--n6</title>
<path fill="none" stroke="#000000" d="M27,-232.5501C27,-256.207 27,-297.3504 27,-321.018"></path>
</g>
<!-- n5&#45;&#45;n7 -->
<g id="edge23" class="edge">
<title>n5--n7</title>
<path fill="none" stroke="#000000" d="M31.4538,-232.4764C42.2741,-276.3758 69.8435,-388.2295 80.5972,-431.8588"></path>
</g>
<!-- n5&#45;&#45;n8 -->
<g id="edge24" class="edge">
<title>n5--n8</title>
<path fill="none" stroke="#000000" d="M36.099,-231.7432C64.3798,-285.6278 150.533,-449.779 178.6772,-503.4032"></path>
</g>
<!-- n5&#45;&#45;n9 -->
<g id="edge25" class="edge">
<title>n5--n9</title>
<path fill="none" stroke="#000000" d="M41.1106,-230.334C89.6667,-285.1425 249.5123,-465.5709 297.6837,-519.9451"></path>
</g>
<!-- n5&#45;&#45;n10 -->
<g id="edge26" class="edge">
<title>n5--n10</title>
<path fill="none" stroke="#000000" d="M45.8132,-227.3922C113.2052,-273.9096 342.1131,-431.9133 409.4401,-478.3858"></path>
</g>
<!-- n5&#45;&#45;n11 -->
<g id="edge27" class="edge">
<title>n5--n11</title>
<path fill="none" stroke="#000000" d="M50.6698,-223.3832C132.8412,-254.5467 405.2298,-357.8501 487.3309,-388.9869"></path>
</g>
<!-- n5&#45;&#45;n12 -->
<g id="edge28" class="edge">
<title>n5--n12</title>
<path fill="none" stroke="#000000" d="M50.5998,-205.4562C121.7365,-178.4776 333.545,-98.1493 404.6425,-71.1855"></path>
</g>
<!-- n6&#45;&#45;n7 -->
<g id="edge16" class="edge">
<title>n6--n7</title>
<path fill="none" stroke="#000000" d="M36.0604,-356.4469C46.9542,-377.2032 65.1247,-411.8241 75.99,-432.5263"></path>
</g>
<!-- n6&#45;&#45;n8 -->
<g id="edge17" class="edge">
<title>n6--n8</title>
<path fill="none" stroke="#000000" d="M40.9779,-354.9614C71.4419,-389.3481 143.5154,-470.7024 173.8453,-504.9377"></path>
</g>
<!-- n6&#45;&#45;n9 -->
<g id="edge18" class="edge">
<title>n6--n9</title>
<path fill="none" stroke="#000000" d="M46.1116,-352.3754C97.9477,-388.1552 240.7769,-486.7431 292.5155,-522.4557"></path>
</g>
<!-- n6&#45;&#45;n10 -->
<g id="edge19" class="edge">
<title>n6--n10</title>
<path fill="none" stroke="#000000" d="M50.5998,-348.1338C121.7365,-375.1124 333.545,-455.4408 404.6425,-482.4045"></path>
</g>
<!-- n6&#45;&#45;n11 -->
<g id="edge20" class="edge">
<title>n6--n11</title>
<path fill="none" stroke="#000000" d="M53.7089,-342.4267C138.3215,-352.7005 399.8314,-384.4535 484.3288,-394.7134"></path>
</g>
<!-- n6&#45;&#45;n12 -->
<g id="edge21" class="edge">
<title>n6--n12</title>
<path fill="none" stroke="#000000" d="M45.8132,-326.1978C113.2052,-279.6804 342.1131,-121.6767 409.4401,-75.2043"></path>
</g>
<!-- n7&#45;&#45;n8 -->
<g id="edge11" class="edge">
<title>n7--n8</title>
<path fill="none" stroke="#000000" d="M103.8217,-462.6691C122.2344,-475.3785 150.1227,-494.6283 168.6132,-507.3915"></path>
</g>
<!-- n7&#45;&#45;n9 -->
<g id="edge12" class="edge">
<title>n7--n9</title>
<path fill="none" stroke="#000000" d="M108.8042,-458.7011C152.4299,-475.2461 244.6581,-510.2237 288.0456,-526.6784"></path>
</g>
<!-- n7&#45;&#45;n10 -->
<g id="edge13" class="edge">
<title>n7--n10</title>
<path fill="none" stroke="#000000" d="M111.6336,-452.9038C175.5805,-460.6684 337.1763,-480.2897 401.3461,-488.0813"></path>
</g>
<!-- n7&#45;&#45;n11 -->
<g id="edge14" class="edge">
<title>n7--n11</title>
<path fill="none" stroke="#000000" d="M111.6331,-446.4329C188.1312,-437.1443 407.8334,-410.4676 484.319,-401.1806"></path>
</g>
<!-- n7&#45;&#45;n12 -->
<g id="edge15" class="edge">
<title>n7--n12</title>
<path fill="none" stroke="#000000" d="M98.8668,-434.0011C154.1745,-371.5717 358.5431,-140.8872 414.1599,-78.1088"></path>
</g>
<!-- n8&#45;&#45;n9 -->
<g id="edge7" class="edge">
<title>n8--n9</title>
<path fill="none" stroke="#000000" d="M214.2491,-523.7763C235.0064,-526.2967 263.7331,-529.7848 284.5877,-532.317"></path>
</g>
<!-- n8&#45;&#45;n10 -->
<g id="edge8" class="edge">
<title>n8--n10</title>
<path fill="none" stroke="#000000" d="M214.3371,-517.3127C260.573,-511.6986 355.1135,-500.2193 401.4325,-494.5951"></path>
</g>
<!-- n8&#45;&#45;n11 -->
<g id="edge9" class="edge">
<title>n8--n11</title>
<path fill="none" stroke="#000000" d="M211.1863,-511.6337C270.758,-489.0412 427.1488,-429.7299 487.0965,-406.9948"></path>
</g>
<!-- n8&#45;&#45;n12 -->
<g id="edge10" class="edge">
<title>n8--n12</title>
<path fill="none" stroke="#000000" d="M196.6667,-503.4203C234.5343,-431.2696 380.851,-152.4864 419.0485,-79.7073"></path>
</g>
<!-- n9&#45;&#45;n10 -->
<g id="edge4" class="edge">
<title>n9--n10</title>
<path fill="none" stroke="#000000" d="M335.1535,-526.6361C355.395,-518.9595 384.4067,-507.9568 404.638,-500.2841"></path>
</g>
<!-- n9&#45;&#45;n11 -->
<g id="edge5" class="edge">
<title>n9--n11</title>
<path fill="none" stroke="#000000" d="M330.304,-522.6409C368.3101,-496.4071 454.0137,-437.2502 492.0996,-410.9615"></path>
</g>
<!-- n9&#45;&#45;n12 -->
<g id="edge6" class="edge">
<title>n9--n12</title>
<path fill="none" stroke="#000000" d="M315.9749,-517.6124C334.4555,-442.6338 405.2881,-155.2547 423.777,-80.2422"></path>
</g>
<!-- n10&#45;&#45;n11 -->
<g id="edge2" class="edge">
<title>n10--n11</title>
<path fill="none" stroke="#000000" d="M442.2487,-475.4999C457.5562,-458.2213 481.9009,-430.7419 497.1263,-413.556"></path>
</g>
<!-- n10&#45;&#45;n12 -->
<g id="edge3" class="edge">
<title>n10--n12</title>
<path fill="none" stroke="#000000" d="M428.2125,-473.1798C428.2125,-403.1523 428.2125,-151.1043 428.2125,-80.6548"></path>
</g>
<!-- n11&#45;&#45;n12 -->
<g id="edge1" class="edge">
<title>n11--n12</title>
<path fill="none" stroke="#000000" d="M506.5065,-379.8977C492.1397,-321.6092 447.0812,-138.7999 432.6831,-80.3845"></path>
</g>
</g>
</svg>
